<svg xmlns="http://www.w3.org/2000/svg" viewBox="0 0 1664 403.1" enable-background="new 0 0 1664 403.1"><style type="text/css">.st0{fill:#4CD964;} .st1{fill:#FFFFFF;} .st2{fill:#FFF200;} .st3{fill:#0099A9;} .st4{fill:#E63F52;}</style><path id="Rectangle_520" class="st0" d="M-1-.9h1666v412.4h-1666z"/><path class="st1" d="M1501.1 638h-23.8c0-54.8-9.4-105.8-27.9-151.8-14.8-36.6-35.4-70.2-61.2-99.7-43.1-49.2-86.1-70.3-88.1-71.2-4.4-2-72.9-33.2-142.5-86.8-41.6-32.1-74.9-65.5-98.8-99.4-30.5-43.2-46-87.2-46-130.9v-354.6h23.8v354.7c0 38.7 14 78.1 41.6 117.2 22.6 31.9 54.2 63.6 93.9 94.3 68.2 52.5 137.1 83.7 137.8 84l.2.1c2 .9 48.8 23.3 95.9 77.1 27.6 31.5 49.6 67.3 65.4 106.4 19.8 48.8 29.7 102.8 29.7 160.6z" id="Path_530"/><path class="st2" d="M1425.5 633.9h-23.8c0-44.1-5.7-84.7-16.9-120.6-8.9-28.6-21.3-54.3-36.9-76.5-26.5-37.7-53.4-52.3-53.6-52.5l-.5-.3c-1-.6-97.8-58-266.6-193.6-38.6-31-78.1-53-117.5-65.3-33.7-10.5-68-14.2-102.1-11-64.5 6-116 35-149.2 56.2-11.3 7.2-22.8 15.9-35 25-32.2 24.1-68.7 51.4-116.9 65-55.5 15.7-116.1 10-185-17.4-42.6-17-85.3-51.9-126.9-103.8-32.7-40.9-65-92.4-95.8-153.3-52.4-103.2-83.2-199-83.5-200l22.6-7.2c.3.9 30.6 95.2 82.2 196.7 30.1 59.3 61.5 109.5 93.1 149 38.9 48.6 78.3 81 117 96.4 63.9 25.4 119.5 30.9 169.8 16.6 43.9-12.4 78.5-38.3 109.1-61.2 12.5-9.4 24.4-18.3 36.4-26 23.7-15.2 46-27.1 68-36.3 30.6-12.8 61.4-20.7 91.8-23.6 80.5-7.5 160.1 19.9 236.7 81.5 163.7 131.6 258.8 188.7 263.6 191.5 3.6 2 32.3 18.4 60.7 58.3 17.2 24.2 30.9 52.2 40.7 83.3 12.3 38.8 18.5 82.2 18.5 129.1z" id="Path_531"/><path class="st3" d="M1573.3 639.4h-23.8c0-71.3-11.8-136-35-192.3-18.5-44.8-44.2-84.5-76.4-117.9-54.7-56.7-109.4-75.7-110-75.9h-.1c-2.5-.9-61.2-21.4-120.8-62.5-35.3-24.3-63.5-50.9-83.7-78.8-25.8-35.7-38.7-73.7-38.5-113.1 1.2-159.4 0-354.1 0-356.1l23.8-.1c0 1.9 1.2 196.9 0 356.4-.3 34.2 11.2 67.5 33.9 99 18.6 25.8 44.9 50.4 77.9 73.2 56.4 38.9 113.5 59.1 115 59.6 3 1 61 21.4 119.4 81.9 34.3 35.6 61.7 77.8 81.3 125.4 24.7 59 37 126.8 37 201.2z" id="Path_532"/><path class="st4" d="M1644.6 630.2h-23.8c0-94-15.1-176-45-243.6-23.7-53.6-56.7-98.4-98-133.1-70.2-58.9-140.5-68.4-141.2-68.5l-.7-.1c-1.7-.3-43.2-8.3-85.1-34.7-25-15.7-44.9-34.8-59.3-56.7-18.1-27.5-27.3-59.3-27.3-94.5v-352.8h23.8v352.8c0 30.3 7.8 57.6 23.1 81.1 12.4 19 29.8 35.6 51.7 49.6 36.5 23.2 73.8 31.1 77.2 31.8 3.1.4 21.6 3.3 48.2 13 26.1 9.5 65.5 27.8 104.8 60.8 44.2 37.1 79.3 84.8 104.5 141.7 31.3 70.7 47.1 155.9 47.1 253.2z" id="Path_533"/></svg>