<svg enable-background="new 0 0 568 216" viewBox="0 0 568 216" xmlns="http://www.w3.org/2000/svg"><path d="m526 56.8c-5.4 0-9 2.9-10.8 8.3l-21.5 60.2h-.4l-22.7-60.2c-2.1-5.4-5.4-8.3-10.8-8.3-6.7 0-11.7 4.8-11.7 11 0 1.9.4 3.5 1.3 5.4l33.2 81.1-1.2 4.3c-3.8 10.2-7.7 12.3-15 12.5-6.9.2-11.1 4.6-11.1 10.4s4.4 10.4 11.1 10.4h1.5c16.3 0 24.6-6.3 33.4-28.6l35.2-90.2c.6-1.9 1-3.5 1-5.4-.3-6.1-5.1-10.9-11.5-10.9zm-453.8 18.4h21.3c2.7 3.2 6.7 5.2 11.2 5.2 8.2 0 14.8-6.6 14.8-14.8s-6.6-14.8-14.8-14.8c-4.3 0-8.2 1.8-10.9 4.8h-21.5c-24.4.4-37.8 12.8-37.8 31.7 0 17.1 10.2 27.3 30.8 29.6l10.8 1c13.1 1.2 16.6 4.8 16.6 11 0 7.5-7.1 11.9-18.5 11.9-10.4 0-17.9-3.3-25.6-8.1-2.5-1.5-5-2.3-7.3-2.3-6.2 0-10.6 5-10.6 10.6 0 4 1.7 6.9 5.6 9.4 8.3 5.6 21.2 10.2 36.6 10.2 27.3 0 42.2-13.7 42.2-33.7 0-16.7-9.8-27.5-31-29.6l-10.8-1c-12.6-1.3-16.3-4.8-16.3-10.7 0-5.8 4.8-10.4 15.2-10.4zm32.7-20.4c5.8 0 10.6 4.7 10.6 10.6 0 5.8-4.7 10.6-10.6 10.6-5.8 0-10.6-4.7-10.6-10.6.1-5.9 4.8-10.6 10.6-10.6zm195.9 41 21.1-21.2c2.3-2.5 3.8-5 3.8-8.1 0-5.6-4.8-9.6-10-9.6-3.5 0-6 1.5-8.8 4.2l-36.3 38.9v-64.5c0-7.7-4.8-12.3-11.7-12.3s-11.7 4.6-11.7 12.3v111.5c0 7.7 4.8 12.3 11.7 12.3s11.7-4.6 11.7-12.3v-20.4l14.2-15.2 25 41.6c2.5 4.2 6.5 6.2 10.8 6.2 6.5 0 11.3-5 11.3-11.2 0-2.1-.8-4.2-2.1-6.2zm-80.6 40.4c-1.5-2.7-2.1-4.8-2.1-10v-31.6c0-24.8-13.5-38.9-42-38.9h-20.9c-4.9 0-8.9 5.3-8.9 10.2s4 10.2 8.9 10.2l20.8-.1c14.1.7 20 7.4 20 18.5v2.5c0 .8-.4 1.2-1.2 1.2h-20.6c-24.8 0-40 10.4-40 32.1 0 19.2 12.7 30.4 36.4 30.4 13.5 0 23.7-4.2 29.6-11h.2l3.3 5c2.3 3.3 5.6 4.8 9.8 4.8 6.7 0 11.7-4.6 11.7-10.8 0-2.3-.6-4.6-1.9-6.9zm-24.1-10.4c0 10.6-8.5 15.8-22.1 15.8-11.4 0-17.5-4.2-17.5-12.5 0-9.2 6.2-13.5 21.6-13.5h16.6c.8 0 1.2.4 1.2 1.2v9zm162.9-60c0-.1 0-.1 0 0zm73.9 70.4c-1.5-2.7-2.1-4.8-2.1-10v-31.7c0-24.8-13.5-38.9-42-38.9h-20.9c-4.9 0-8.9 5.3-8.9 10.2s4 10.2 8.9 10.2l20.8-.1c14.1.7 20 7.4 20 18.5v2.5c0 .8-.4 1.2-1.2 1.2h-20.6c-24.8 0-40 10.4-40 32.1 0 19.2 12.7 30.4 36.4 30.4 13.5 0 23.7-4.2 29.5-11h.2l3.3 5c2.3 3.3 5.6 4.8 9.8 4.8 6.7 0 11.7-4.6 11.7-10.8 0-2.3-.6-4.6-1.9-6.9zm-24.1-10.4c0 10.6-8.5 15.8-22.1 15.8-11.4 0-17.5-4.2-17.5-12.5 0-9.2 6.2-13.5 21.6-13.5h16.6c.8 0 1.2.4 1.2 1.2v9z" fill="#a3d55f"/></svg>
